<svg width="53" height="53" viewBox="0 0 53 53" fill="none" xmlns="http://www.w3.org/2000/svg">
<path fill-rule="evenodd" clip-rule="evenodd" d="M34.7812 11.5938C34.7812 9.39743 33.9088 7.29106 32.3557 5.73802C30.8027 4.18499 28.6963 3.3125 26.5 3.3125C24.3037 3.3125 22.1973 4.18499 20.6443 5.73802C19.0912 7.29106 18.2188 9.39743 18.2188 11.5938V13.25H34.7812V11.5938ZM38.0938 11.5938V13.25H49.6875V46.375C49.6875 48.1321 48.9895 49.8172 47.7471 51.0596C46.5047 52.302 44.8196 53 43.0625 53H9.9375C8.18044 53 6.49535 52.302 5.25292 51.0596C4.01049 49.8172 3.3125 48.1321 3.3125 46.375V13.25H14.9062V11.5938C14.9062 8.5189 16.1277 5.56998 18.302 3.39573C20.4762 1.22148 23.4251 0 26.5 0C29.5749 0 32.5238 1.22148 34.698 3.39573C36.8723 5.56998 38.0938 8.5189 38.0938 11.5938ZM46.375 46.375V16.5625H6.625V46.375C6.625 47.2535 6.97399 48.0961 7.59521 48.7173C8.21642 49.3385 9.05897 49.6875 9.9375 49.6875H43.0625C43.941 49.6875 44.7836 49.3385 45.4048 48.7173C46.026 48.0961 46.375 47.2535 46.375 46.375ZM26.5 26.4768C32.012 20.8091 45.7953 30.7267 26.5 43.4766C7.20469 30.7234 20.988 20.8091 26.5 26.4768Z" fill="#7A1616"/>
</svg>
