<svg width="298" height="168" viewBox="0 0 298 168" fill="none" xmlns="http://www.w3.org/2000/svg">
<path d="M10.8964 75.0396C10.7822 74.9896 10.6732 74.9397 10.5591 74.8898" stroke="#7A1616" stroke-width="1.81124" stroke-miterlimit="8.45"/>
<path d="M34.6676 71.0527H34.6592" stroke="#7A1616" stroke-width="1.81124" stroke-miterlimit="8.45"/>
<path d="M36.1456 65.9283C36.1351 65.8435 36.1299 65.7636 36.1143 65.6838C35.3316 60.4746 28.5226 56.3132 20.1534 56.1835H19.3134C10.9442 56.3232 4.1821 60.5395 3.78034 65.8934C3.76468 66.0231 3.76468 66.1528 3.76468 66.2826C3.75425 66.6768 3.78555 67.0659 3.84295 67.4501C3.99426 68.4082 4.34385 69.3263 4.88127 70.1945" stroke="#7A1616" stroke-width="1.81124" stroke-miterlimit="8.45"/>
<path d="M1.83978 75.9626C1.31279 74.7003 0.900593 73.1984 0.905811 72.9189C0.942334 70.8582 2.02761 68.9721 3.84858 67.4503C3.93728 67.3754 4.0312 67.3006 4.12512 67.2257C6.91136 65.0353 11.2525 63.6581 16.1101 63.733C16.8354 63.748 17.5554 63.7879 18.2546 63.8577C25.5332 64.6261 31.064 68.6378 30.9857 73.388C30.9857 73.6923 30.9544 73.9917 30.9022 74.2811" stroke="#7A1616" stroke-width="1.81124" stroke-miterlimit="8.45"/>
<path d="M39.6498 75.0295C40.2499 73.787 40.2133 72.7941 40.2238 72.5197C40.2655 69.9849 38.7054 67.6597 36.1436 65.9283C36.1175 65.9134 36.0914 65.8884 36.0601 65.8734C33.3625 64.0772 29.5693 62.9295 25.3534 62.8647C22.7863 62.8248 20.3653 63.189 18.2469 63.8576C13.4884 65.3695 10.2169 68.4431 10.1543 72.0407C10.1543 72.385 10.1699 72.7242 10.2273 73.0586L10.29 73.3979C10.4152 73.9617 10.6187 74.5105 10.9004 75.0394" stroke="#7A1616" stroke-width="1.81124" stroke-miterlimit="8.45"/>
<path d="M39.6572 75.0294L24.479 113.59" stroke="#7A1616" stroke-width="1.81124" stroke-miterlimit="8.45"/>
<path d="M1.15088 73.862L14.1064 113.031C11.9045 113.585 11.2627 114.458 11.2627 114.458L11.9515 165.307C11.9515 165.307 16.59 166.46 19.3501 166.505C22.1155 166.545 26.2062 165.537 26.2062 165.537L27.7506 114.328C27.7506 114.328 27.5784 113.345 25.387 113.21C24.3226 113.146 21.6355 113.101 19.1466 113.076C16.5117 113.046 14.1064 113.036 14.1064 113.036" stroke="#7A1616" stroke-width="1.81124" stroke-miterlimit="8.45"/>
<path d="M19.355 165.921C20.1794 151.112 19.1411 113.076 19.1411 113.076" stroke="#7A1616" stroke-width="1.81124" stroke-miterlimit="8.45"/>
<path d="M30.9537 74.5953L21.6245 113.11" stroke="#7A1616" stroke-width="1.81124" stroke-miterlimit="8.45"/>
<path d="M10.2256 73.0637L17.4469 113.041" stroke="#7A1616" stroke-width="1.81124" stroke-miterlimit="8.45"/>
<path d="M3.75049 65.7687L15.8764 113.22" stroke="#7A1616" stroke-width="1.81124" stroke-miterlimit="8.45"/>
<path d="M23.2866 113.136L34.6559 71.0529H34.6612L36.0595 65.8736L36.1064 65.684L36.2108 65.3248" stroke="#7A1616" stroke-width="1.81124" stroke-miterlimit="8.45"/>
<path d="M53.281 10.7926C52.1905 15.3981 47.7502 19.0405 43.2422 19.0405C38.7341 19.0405 36.0053 15.3981 37.0279 10.9273C37.6436 8.2479 39.3498 5.90775 41.536 4.39589C40.7846 4.32603 40.0333 4.25618 39.282 4.25618C29.0397 4.25618 21.4584 12.8484 18.7295 24.5341C16.2042 35.8058 19.5487 44.1934 30.1354 44.1934C37.4401 44.1934 43.9987 40.2066 48.0268 34.224H49.4616C43.3152 44.882 34.9148 51.2737 24.1298 51.2737C10.543 51.2737 3.64521 41.1696 7.05758 26.046C10.736 10.2438 23.1645 0 38.8019 0C49.5243 0 54.6428 4.74516 53.281 10.7926Z" fill="#7A1616"/>
<path d="M73.5666 14.2308C84.5602 14.2308 90.0231 21.5855 87.5656 32.5179C85.0402 43.585 75.8884 51.284 64.7591 51.284C53.6298 51.284 48.1669 43.7895 50.6922 32.7923C53.2176 21.6554 62.4372 14.2308 73.5666 14.2308ZM65.7139 47.0228C70.0185 47.0228 74.1822 41.3147 76.1597 32.7923C78.1425 24.1303 76.5719 18.5618 72.3352 18.5618C68.0984 18.5618 63.9347 24.265 61.9572 32.927C60.0475 41.4494 61.545 47.0178 65.7139 47.0178V47.0228Z" fill="#7A1616"/>
<path d="M115.225 27.7029C116.389 22.6833 115.157 19.6595 111.745 19.6595C108.536 19.6595 105.531 22.6134 104.028 27.154L100.068 44.2735C99.7286 45.9251 100.271 47.6415 101.231 48.6744L101.847 49.1534L101.508 50.5954H84.5034L84.8426 49.1534L85.5261 48.6744C87.1644 47.6415 88.4636 45.9251 88.8028 44.2735L93.5822 23.4417C93.9944 21.7901 93.5143 20.0038 92.3508 19.0408L91.8708 18.5618L92.1421 17.1198L104.023 14.9892H106.825L105.525 20.418C108.87 16.5659 113.514 14.2308 118.361 14.2308C125.666 14.2308 128.468 19.3851 126.694 27.0143L122.598 44.8174C122.185 46.6037 122.598 47.2923 123.965 47.2923C123.965 47.2923 124.987 47.2923 125.807 46.3293C125.467 48.0457 122.185 51.279 117.067 51.279C112.559 51.279 110.373 48.8041 111.604 43.3754L115.225 27.7029Z" fill="#7A1616"/>
<path d="M135.578 19.2504H132.917L133.939 14.9893H136.6L137.08 12.9285C139.199 3.64777 145.549 0.00532532 153.673 0.00532532C161.797 0.00532532 164.327 3.37334 163.231 7.90894C162.412 11.6911 159.407 14.166 156.334 14.166C153.26 14.166 151.419 11.6911 152.102 8.66737C152.514 6.88107 153.605 5.29935 155.175 4.26649C154.904 3.99206 154.356 3.85235 153.808 3.85235C151.283 3.85235 149.645 7.08565 148.142 13.6121L147.871 14.9893H152.446L151.424 19.2504H146.848L141.114 44.2736C140.774 45.9251 141.249 47.6416 142.277 48.6744L142.893 49.1535L142.554 50.5955H125.549L125.888 49.1535L126.572 48.6744C128.21 47.6416 129.442 45.9251 129.781 44.2736L135.583 19.2504H135.578Z" fill="#7A1616"/>
<path d="M183.378 26.0511C181.604 33.82 173.684 39.6629 164.667 39.6629C162.826 39.6629 160.978 39.3884 159.069 38.9044C160.024 42.2725 162.549 44.1985 166.441 44.1985C172.995 44.1985 178.322 38.7697 179.553 36.3597H180.988C176.757 45.2962 169.582 51.2788 160.504 51.2788C150.533 51.2788 144.798 44.1985 147.324 33.336C149.917 21.9246 159.685 14.2256 171.565 14.2256C181.672 14.2256 184.813 19.794 183.378 26.0511ZM170.266 18.5616C166.17 18.5616 160.843 23.7858 159.069 31.415C158.657 33.341 158.521 35.1273 158.589 36.709C173.819 32.5825 176.819 18.5616 170.266 18.5616Z" fill="#7A1616"/>
<path d="M196.763 49.1531L196.424 50.5951H179.42L179.759 49.1531L180.443 48.6741C182.081 47.6413 183.38 45.9248 183.719 44.2732L188.499 23.4414C188.911 21.7898 188.431 20.0035 187.267 19.0405L186.787 18.5615L187.059 17.1195L198.939 14.9889H201.741L194.979 44.2732C194.64 45.9248 195.183 47.6413 196.143 48.6741L196.758 49.1531H196.763ZM199.498 0C203.119 0 205.367 3.02373 204.548 6.60132C203.729 10.1739 200.108 13.1328 196.492 13.1328C192.876 13.1328 190.69 10.1789 191.509 6.60132C192.328 3.02872 195.95 0 199.498 0Z" fill="#7A1616"/>
<path d="M207.557 19.2502H204.348L205.371 14.989H208.58C212.952 14.989 216.093 12.7885 217.048 8.59723H221.279L219.845 14.989H223.873L222.85 19.2502H218.822L212.947 44.8222C212.535 46.6084 213.015 47.297 214.314 47.297C214.314 47.297 215.404 47.297 216.156 46.334C215.817 48.0505 212.602 51.2838 207.416 51.2838C202.908 51.2838 200.795 48.8089 202.021 43.3801L207.552 19.2502H207.557Z" fill="#7A1616"/>
<path d="M242.859 14.2307C253.853 14.2307 259.316 21.5855 256.858 32.5178C254.333 43.5849 245.181 51.2839 234.052 51.2839C222.922 51.2839 217.459 43.7895 219.985 32.7923C222.51 21.6554 231.73 14.2307 242.859 14.2307ZM235.006 47.0228C239.311 47.0228 243.475 41.3146 245.452 32.7923C247.435 24.1302 245.864 18.5618 241.628 18.5618C237.391 18.5618 233.227 24.2649 231.25 32.927C229.34 41.4493 230.837 47.0178 235.006 47.0178V47.0228Z" fill="#7A1616"/>
<path d="M82.719 55.8296L83.0425 54.2079L105.045 54.0483C122.483 53.9185 131.29 65.1852 127.116 83.0232C122.942 100.941 108.651 112.702 91.636 112.826L69.3774 112.991L69.7896 111.29L70.6297 110.716C72.6541 109.488 74.2403 107.453 74.6525 105.507L84.8792 61.6425C85.3696 59.6965 84.7644 57.5959 83.3139 56.4732L82.7138 55.8296H82.719ZM88.0463 107.837L90.6708 107.817C100.741 107.742 109.554 98.3714 113.154 82.9633C116.67 67.8846 112.282 59.008 102.468 59.0828L99.4208 59.1028L88.0463 107.832V107.837Z" fill="#7A1616"/>
<path d="M155.347 69.7011C168.976 69.6013 175.816 78.2135 172.868 91.1018C169.842 104.155 158.572 113.306 144.776 113.406C131.32 113.505 124.14 104.733 127.166 91.7604C130.193 78.6276 141.546 69.8009 155.342 69.7011H155.347ZM145.924 108.376C151.256 108.336 156.365 101.58 158.739 91.5259C161.113 81.312 159.109 74.7706 153.865 74.8055C148.705 74.8454 143.508 81.6014 141.134 91.8153C138.844 101.869 140.758 108.411 145.924 108.371V108.376Z" fill="#7A1616"/>
<path d="M217.918 80.1738C216.853 84.4699 212.731 87.6583 208.5 87.6882C204.185 87.7182 201.534 84.5847 202.515 80.5281C203.089 78.178 204.597 76.1422 206.616 74.8299C206.193 74.6702 205.171 74.2711 203.564 74.286C197.553 74.3309 191.005 80.5281 188.876 89.5294C186.831 98.4509 190.353 104.573 198.137 104.518C206.261 104.458 212.815 98.0168 214.312 95.1727L216.091 95.1578C211.677 104.094 204.127 112.811 191.772 112.901C180.262 112.986 171.23 105.362 174.334 91.9045C177.277 79.2557 189.048 69.2964 203.183 69.1916C213.086 69.1167 219.306 74.0116 217.912 80.1738H217.918Z" fill="#7A1616"/>
<path d="M262.976 82.6737C260.847 91.8347 251.085 98.7903 239.914 98.8701C237.628 98.8851 235.343 98.5807 232.964 98.0319C234.179 101.989 237.331 104.234 242.152 104.199C250.276 104.139 256.829 97.6976 258.327 94.8535L260.106 94.8385C254.94 105.402 246.112 112.507 234.858 112.587C222.502 112.677 215.323 104.394 218.354 91.5802C221.464 78.1182 233.491 68.9671 248.22 68.8574C260.748 68.7675 264.692 75.294 262.976 82.6687V82.6737ZM246.655 73.9718C241.578 74.0117 235.025 80.2088 232.896 89.2102C232.405 91.4805 232.254 93.5861 232.353 95.4472C251.189 90.4526 254.779 73.9119 246.655 73.9718Z" fill="#7A1616"/>
<path d="M45.8097 164.579C46.1436 157.583 50.4169 151.406 56.0155 147.13C62.4802 142.195 70.4789 139.98 78.6236 139.301C87.9946 138.523 97.4542 139.521 106.799 140.189C116.76 140.903 126.72 141.617 136.681 142.33C146.641 143.044 156.529 143.757 166.453 144.466C176.361 145.179 186.27 145.893 196.183 146.601C205.898 147.295 215.635 147.948 225.381 147.928C234.794 147.913 244.248 147.28 253.473 145.409C261.174 143.847 268.709 141.417 275.716 137.969C282.656 134.556 289.079 130.11 294.354 124.592C295.637 123.25 296.843 121.853 297.98 120.391C298.032 120.321 297.996 119.777 297.996 119.777C297.996 119.278 298.006 118.784 297.996 118.285C297.985 117.786 297.996 117.292 297.996 116.793C297.996 116.678 297.923 116.254 297.98 116.179C293.305 122.177 287.346 127.157 280.699 131.073C273.973 135.03 266.596 137.929 258.988 139.92C250.275 142.2 241.259 143.248 232.242 143.587C222.506 143.957 212.76 143.503 203.05 142.864C193.339 142.225 183.342 141.467 173.491 140.758C163.531 140.045 153.57 139.331 143.61 138.618C133.686 137.904 123.762 137.191 113.838 136.482C108.891 136.128 103.94 135.769 98.9935 135.419C94.3549 135.09 89.706 134.796 85.0518 134.821C76.5053 134.866 67.6613 136.018 60.1739 140.204C54.0014 143.652 48.6429 149.031 46.6236 155.712C46.1488 157.279 45.8827 158.896 45.8045 160.527C45.7627 161.386 45.7888 162.254 45.7888 163.122C45.7888 163.541 45.7888 163.96 45.7992 164.384C45.7992 164.424 45.8097 164.803 45.8149 164.594V164.579H45.8097Z" fill="#7A1616"/>
</svg>
