<svg width="62" height="176" viewBox="0 0 62 176" fill="none" xmlns="http://www.w3.org/2000/svg">
<path d="M16.1474 30.5964C15.9731 30.5179 15.8067 30.4394 15.6323 30.361" stroke="#7A1616" stroke-width="1.81124" stroke-miterlimit="8.45"/>
<path d="M52.413 24.319H52.4019" stroke="#7A1616" stroke-width="1.81124" stroke-miterlimit="8.45"/>
<path d="M54.6706 16.25C54.6547 16.1165 54.6467 15.9908 54.6228 15.865C53.4287 7.6625 43.0402 1.1099 30.2715 0.905624H28.9899C16.2212 1.12562 5.90428 7.76464 5.29132 16.195C5.26744 16.3993 5.26744 16.6036 5.26744 16.8079C5.25152 17.4285 5.29928 18.0414 5.38685 18.6464C5.6177 20.1549 6.15106 21.6005 6.971 22.9676" stroke="#7A1616" stroke-width="1.81124" stroke-miterlimit="8.45"/>
<path d="M2.33053 32.0503C1.52652 30.0625 0.897632 27.6976 0.905592 27.2576C0.961316 24.0127 2.61711 21.0428 5.39534 18.6465C5.53067 18.5286 5.67396 18.4108 5.81725 18.2929C10.0682 14.8438 16.6914 12.6753 24.1026 12.7932C25.2091 12.8167 26.3077 12.8796 27.3744 12.9896C38.4794 14.1995 46.9176 20.5164 46.7981 27.9961C46.7981 28.4754 46.7504 28.9468 46.6708 29.4025" stroke="#7A1616" stroke-width="1.81124" stroke-miterlimit="8.45"/>
<path d="M60.0286 30.5809C60.944 28.6246 60.8883 27.061 60.9042 26.6289C60.9679 22.6376 58.5877 18.9764 54.6791 16.25C54.6393 16.2265 54.5995 16.1872 54.5517 16.1636C50.4361 13.3352 44.6488 11.5281 38.2167 11.4259C34.3001 11.3631 30.6064 11.9366 27.3744 12.9895C20.1144 15.3701 15.1231 20.2099 15.0276 25.8747C15.0276 26.4168 15.0515 26.9511 15.139 27.4775L15.2346 28.0117C15.4256 28.8996 15.7361 29.7638 16.1659 30.5966" stroke="#7A1616" stroke-width="1.81124" stroke-miterlimit="8.45"/>
<path d="M60.0283 30.5809L36.8711 91.2986" stroke="#7A1616" stroke-width="1.81124" stroke-miterlimit="8.45"/>
<path d="M1.27979 28.7425L21.0458 90.4186C17.6865 91.2907 16.7073 92.6657 16.7073 92.6657L17.7581 172.735C17.7581 172.735 24.8351 174.55 29.0462 174.62C33.2653 174.683 39.5063 173.096 39.5063 173.096L41.8627 92.4614C41.8627 92.4614 41.6 90.9136 38.2565 90.7015C36.6326 90.5993 32.5329 90.5286 28.7357 90.4893C24.7156 90.4422 21.0458 90.4265 21.0458 90.4265" stroke="#7A1616" stroke-width="1.81124" stroke-miterlimit="8.45"/>
<path d="M29.0539 173.701C30.3117 150.382 28.7275 90.4893 28.7275 90.4893" stroke="#7A1616" stroke-width="1.81124" stroke-miterlimit="8.45"/>
<path d="M46.7501 29.8974L32.5166 90.5443" stroke="#7A1616" stroke-width="1.81124" stroke-miterlimit="8.45"/>
<path d="M15.1235 27.4854L26.1409 90.4343" stroke="#7A1616" stroke-width="1.81124" stroke-miterlimit="8.45"/>
<path d="M5.24438 15.9987L23.7447 90.7172" stroke="#7A1616" stroke-width="1.81124" stroke-miterlimit="8.45"/>
<path d="M35.0566 90.5836L52.4027 24.319H52.4106L54.5441 16.1636L54.6157 15.8651L54.7749 15.2994" stroke="#7A1616" stroke-width="1.81124" stroke-miterlimit="8.45"/>
</svg>
