<svg width="53" height="40" viewBox="0 0 53 40" fill="none" xmlns="http://www.w3.org/2000/svg">
<path d="M33.125 3.3027C34.0035 3.3027 34.8461 3.65067 35.4673 4.27004C36.0885 4.88942 36.4375 5.72947 36.4375 6.60541V33.027C36.4375 33.903 36.0885 34.743 35.4673 35.3624C34.8461 35.9818 34.0035 36.3297 33.125 36.3297H19.875C18.9965 36.3297 18.1539 35.9818 17.5327 35.3624C16.9115 34.743 16.5625 33.903 16.5625 33.027V6.60541C16.5625 5.72947 16.9115 4.88942 17.5327 4.27004C18.1539 3.65067 18.9965 3.3027 19.875 3.3027H33.125ZM19.875 0C18.1179 0 16.4328 0.695924 15.1904 1.93468C13.948 3.17343 13.25 4.85354 13.25 6.60541V33.027C13.25 34.7789 13.948 36.459 15.1904 37.6978C16.4328 38.9365 18.1179 39.6324 19.875 39.6324H33.125C34.8821 39.6324 36.5672 38.9365 37.8096 37.6978C39.052 36.459 39.75 34.7789 39.75 33.027V6.60541C39.75 4.85354 39.052 3.17343 37.8096 1.93468C36.5672 0.695924 34.8821 0 33.125 0H19.875Z" fill="#7A1616"/>
<path d="M26.5 33.027C27.3785 33.027 28.2211 32.6791 28.8423 32.0597C29.4635 31.4403 29.8125 30.6002 29.8125 29.7243C29.8125 28.8484 29.4635 28.0083 28.8423 27.389C28.2211 26.7696 27.3785 26.4216 26.5 26.4216C25.6215 26.4216 24.7789 26.7696 24.1577 27.389C23.5365 28.0083 23.1875 28.8484 23.1875 29.7243C23.1875 30.6002 23.5365 31.4403 24.1577 32.0597C24.7789 32.6791 25.6215 33.027 26.5 33.027ZM5.29669 6.79695C5.489 6.8984 5.65938 7.03663 5.79809 7.20376C5.9368 7.37088 6.04113 7.56361 6.10511 7.77094C6.1691 7.97827 6.19148 8.19614 6.17099 8.41211C6.1505 8.62807 6.08753 8.83789 5.98569 9.02958C4.22841 12.355 3.31085 16.0575 3.3125 19.8162C3.3125 23.7134 4.27975 27.386 5.98569 30.6028C6.19127 30.99 6.23417 31.4427 6.10495 31.8614C5.97574 32.2801 5.685 32.6305 5.29669 32.8355C4.90838 33.0404 4.45431 33.0832 4.03437 32.9544C3.61443 32.8255 3.26302 32.5357 3.05744 32.1485C1.04756 28.3468 -0.00192266 24.1137 2.64425e-06 19.8162C2.64425e-06 15.3675 1.10638 11.1664 3.05744 7.48391C3.15919 7.29217 3.29784 7.1223 3.46545 6.984C3.63307 6.8457 3.82637 6.74168 4.03432 6.67788C4.24227 6.61409 4.46078 6.59177 4.67739 6.6122C4.89399 6.63263 5.10443 6.69541 5.29669 6.79695ZM47.7033 6.79695C47.8956 6.69541 48.106 6.63263 48.3226 6.6122C48.5392 6.59177 48.7577 6.61409 48.9657 6.67788C49.1736 6.74168 49.3669 6.8457 49.5346 6.984C49.7022 7.1223 49.8408 7.29217 49.9426 7.48391C51.9524 11.2856 53.0019 15.5187 53 19.8162C53.0019 24.1137 51.9524 28.3468 49.9426 32.1485C49.737 32.5357 49.3856 32.8255 48.9656 32.9544C48.5457 33.0832 48.0916 33.0404 47.7033 32.8355C47.315 32.6305 47.0243 32.2801 46.8951 31.8614C46.7658 31.4427 46.8087 30.99 47.0143 30.6028C48.7716 27.2774 49.6892 23.575 49.6875 19.8162C49.6875 15.919 48.7203 12.2464 47.0143 9.02958C46.9125 8.83789 46.8495 8.62807 46.829 8.41211C46.8085 8.19614 46.8309 7.97827 46.8949 7.77094C46.9589 7.56361 47.0632 7.37088 47.2019 7.20376C47.3406 7.03663 47.511 6.8984 47.7033 6.79695ZM10.1263 11.6717C10.3291 11.7506 10.5143 11.8685 10.6714 12.0187C10.8284 12.169 10.9542 12.3486 11.0416 12.5474C11.129 12.7462 11.1762 12.9601 11.1806 13.1771C11.1849 13.3941 11.1464 13.6098 11.0671 13.8119C10.3193 15.7259 9.93621 17.7621 9.9375 19.8162C9.9375 21.9365 10.335 23.9611 11.0638 25.8205C11.1562 26.0246 11.206 26.2454 11.2102 26.4693C11.2144 26.6932 11.1729 26.9156 11.0881 27.123C11.0034 27.3304 10.8772 27.5185 10.7173 27.6758C10.5574 27.833 10.3671 27.9562 10.1579 28.0378C9.94874 28.1195 9.7251 28.1578 9.5006 28.1506C9.2761 28.1433 9.05543 28.0906 8.852 27.9957C8.64857 27.9007 8.46664 27.7655 8.31727 27.5982C8.1679 27.431 8.05422 27.2351 7.98313 27.0227C7.08472 24.7257 6.62413 22.2817 6.625 19.8162C6.625 17.2764 7.10532 14.8456 7.98313 12.6097C8.14285 12.2022 8.45825 11.8745 8.86009 11.6986C9.26192 11.5228 9.71733 11.5131 10.1263 11.6717ZM42.8737 11.6717C43.0764 11.5927 43.2927 11.5542 43.5103 11.5586C43.728 11.5629 43.9426 11.61 44.1419 11.6971C44.3413 11.7842 44.5215 11.9097 44.6722 12.0663C44.8229 12.2229 44.9411 12.4075 45.0202 12.6097C45.8947 14.8456 46.375 17.2764 46.375 19.8162C46.375 22.356 45.8947 24.7868 45.0169 27.0227C44.8421 27.4086 44.5254 27.7128 44.1322 27.8725C43.7389 28.0322 43.2991 28.0352 42.9037 27.8809C42.5083 27.7266 42.1874 27.4267 42.0074 27.0433C41.8273 26.6599 41.8019 26.2221 41.9363 25.8205C42.665 23.9611 43.0625 21.9365 43.0625 19.8162C43.0625 17.6959 42.665 15.6713 41.9363 13.8119C41.7759 13.4041 41.7846 12.9496 41.9604 12.5482C42.1362 12.1469 42.4647 11.8316 42.8737 11.6717Z" fill="#7A1616"/>
</svg>
