<svg width="31" height="31" viewBox="0 0 31 31" fill="none" xmlns="http://www.w3.org/2000/svg">
<g clip-path="url(#clip0_37_2)">
<path d="M22.7499 20.0419C24.626 17.4819 25.4663 14.3079 25.1026 11.1549C24.739 8.00191 23.1983 5.1025 20.7887 3.03672C18.3791 0.970943 15.2784 -0.10886 12.1069 0.0133445C8.93539 0.135549 5.92696 1.45075 3.68349 3.69582C1.44003 5.94089 0.126984 8.95026 0.00704953 12.1219C-0.112885 15.2935 0.969136 18.3934 3.03664 20.8015C5.10414 23.2096 8.00465 24.7482 11.1579 25.1096C14.3111 25.471 17.4845 24.6284 20.0432 22.7505H20.0413C20.0981 22.828 20.1614 22.9023 20.2312 22.9733L27.6905 30.4327C28.0538 30.7963 28.5467 31.0006 29.0606 31.0008C29.5746 31.001 30.0676 30.797 30.4311 30.4337C30.7947 30.0704 30.999 29.5776 30.9992 29.0636C30.9994 28.5496 30.7954 28.0567 30.4321 27.6931L22.9727 20.2337C22.9035 20.1636 22.829 20.1007 22.7499 20.0419ZM23.2498 12.5942C23.2498 13.9936 22.9742 15.3793 22.4386 16.6721C21.9031 17.965 21.1182 19.1397 20.1286 20.1293C19.1391 21.1188 17.9644 21.9037 16.6715 22.4393C15.3786 22.9748 13.9929 23.2504 12.5935 23.2504C11.1941 23.2504 9.80844 22.9748 8.51557 22.4393C7.22269 21.9037 6.04795 21.1188 5.05843 20.1293C4.0689 19.1397 3.28397 17.965 2.74845 16.6721C2.21292 15.3793 1.93729 13.9936 1.93729 12.5942C1.93729 9.76795 3.06 7.05749 5.05843 5.05905C7.05686 3.06062 9.76732 1.93791 12.5935 1.93791C15.4197 1.93791 18.1302 3.06062 20.1286 5.05905C22.1271 7.05749 23.2498 9.76795 23.2498 12.5942Z" fill="#7A1616"/>
</g>
<defs>
<clipPath id="clip0_37_2">
<rect width="31" height="31" fill="white"/>
</clipPath>
</defs>
</svg>
